<svg xmlns="http://www.w3.org/2000/svg" xmlns:xlink="http://www.w3.org/1999/xlink" width="48" height="48" viewBox="0 0 48 48">
  <defs>
    <radialGradient id="radialGradient-2" cx="12.48" cy="46.56" r="45.691" gradientUnits="userSpaceOnUse">
      <stop offset="0" stop-color="rgb(254,218,119)" stop-opacity=".85"/>
      <stop offset=".19" stop-color="rgb(245,133,41)"/>
      <stop offset=".45" stop-color="rgb(221,42,119)"/>
      <stop offset=".8" stop-color="rgb(129,52,175)"/>
      <stop offset="1" stop-color="rgb(81,91,212)"/>
    </radialGradient>
    <path id="path-3" fill-rule="evenodd" d="M0 24C0 10.74516536 10.74516536 0 24 0s24 10.74516536 24 24-10.74516536 24-24 24S0 37.25483464 0 24z"/>
    <mask id="mask-4" maskContentUnits="userSpaceOnUse" maskUnits="userSpaceOnUse">
      <rect width="48" height="48" x="0" y="0" fill="black"/>
      <use fill="white" xlink:href="#path-3"/>
    </mask>
  </defs>
  <g>
    <path fill="url(#radialGradient-2)" fill-rule="evenodd" d="M0 24C0 10.74516536 10.74516536 0 24 0s24 10.74516536 24 24-10.74516536 24-24 24S0 37.25483464 0 24z"/>
    <g>
      <use fill="none" xlink:href="#path-3"/>
      <g mask="url(#mask-4)">
        <path fill="rgb(255,255,255)" fill-rule="evenodd" d="M24.00119972 11.1999998h-.0039997c-3.4726391.00001145-3.90909768.01522447-5.27392197.07733441-1.36268044.06240082-2.2928238.27813626-3.106699.5946722-.84187507.32693673-1.55601596.7642746-2.26749038 1.47601605-.71200752.71147347-1.1493454 1.42561436-1.47734833 2.26722336-.31733703.81414223-.5333395 1.74455261-.59467316 3.10669899-.06106758 1.3653469-.07706737 1.8018856-.07706737 5.2781887 0 3.47630215.01546669 3.91123867.0773344 5.2765875.0626669 1.36267852.27840233 2.29282378.5946722 3.10669707.32720376.84187699.76454163 1.55601883 1.47628213 2.26749039.71120739.71200943 1.42534828 1.15041351 2.26669025 1.47734833.81440926.31653976 1.74481964.53227234 3.10723305.59467315 1.3653469.0621338 1.80135155.07733536 5.27738762.07733536 3.47656917 0 3.9115057-.01520157 5.27685451-.07733536 1.36268234-.06240081 2.2938919-.27813339 3.10829926-.59467315.84160995-.32693482 1.55468368-.7653389 2.26588821-1.47734833.71200943-.71147156 1.1493454-1.4256134 1.47735214-2.26722336.31466675-.81414032.53067017-1.7445488.59466935-3.10669708.06133651-1.36534882.07733535-1.80055237.07733535-5.27685452 0-3.4763031-.01599884-3.91257476-.07733535-5.27792167-.06399918-1.36268044-.2800026-2.2928238-.59466935-3.106699-.32800674-.84187602-.7653427-1.55601691-1.47735214-2.26749038-.71200561-.71200752-1.42401504-1.1493454-2.2666893-1.47601604-.81600952-.31653595-1.74668503-.53227139-3.10936356-.5946722-1.36482238-.06210995-1.79968261-.07732297-5.27338886-.07733441zm-1.14827919 2.30669118c.22296524-.00034905.46282006-.00024128.7216587-.00012493.13680077.00006103.27890588.00012493.4266205.00012493 3.417634 0 3.82270526.01226616 5.17231845.07359981 1.24801636.05706788 1.925354.26560307 2.37656021.44080544.59733963.23200226 1.02320862.50933838 1.47094727.9573431.44800567.44800472.7253418.87467575.95787811 1.47201538.17520142.45067215.38400269 1.1280117.44080353 2.37602425.0613327 1.34934807.07466888 1.75468635.07466888 5.17072105 0 3.41603375-.01333618 3.82137203-.07466888 5.1707182-.05706787 1.24801635-.26560211 1.925354-.44080353 2.37602615-.23200226.59733963-.50987244 1.02267456-.95787811 1.4704132-.44800568.44800568-.87334442.7253418-1.47094727.95734406-.45067215.1760025-1.12854385.38400269-2.3765602.44107056-1.34934617.06133652-1.75468446.07466888-5.17231847.07466888-3.417902 0-3.82297325-.01333236-5.17231941-.07466888-1.24801445-.05759812-1.925354-.26613617-2.37682533-.44133759-.59733963-.23200226-1.02401066-.50933838-1.47201538-.95734405-.44800473-.44800186-.72534085-.87360764-.95787716-1.47121048-.17520142-.45067215-.38400364-1.12801361-.44080448-2.37602616-.06133366-1.34934997-.07360077-1.75468444-.07360077-5.17285442 0-3.41816902.01226711-3.82137298.07360077-5.17071915.05706691-1.24801445.26560306-1.925354.44080448-2.3765602.23200226-.59733868.50987243-1.02400971.95787716-1.47201443.44800472-.44800473.87467575-.72534085 1.47201538-.9578762.4512043-.17600251 1.12881088-.3840046 2.37682533-.44133855 1.18081093-.05333328 1.63841629-.06933403 4.02404022-.0720005v.00320053zm6.44486904 3.66083717c0-.84827423.68800736-1.5354824 1.53601456-1.5354824v-.0005331c.84801102 0 1.53601456.6880064 1.53601456 1.5360155 0 .84800911-.68800354 1.53601647-1.53601456 1.53601647-.8480072 0-1.53601456-.68800736-1.53601456-1.53601647zm-5.29685688.25920296c-3.63004875.00014496-6.57313537 2.94331932-6.57313537 6.5734024 0 3.63017178 2.94323158 6.57206631 6.5734024 6.57206631 3.63016987 0 6.57233525-2.94189453 6.57233525-6.5720663 0-3.63017274-2.9424324-6.57340241-6.57260228-6.57340241zm4.26698017 6.5734024c0-2.35655975-1.91042041-4.26671218-4.26671123-4.26671218-2.35655975 0-4.26671219 1.91015243-4.26671219 4.26671218 0 2.35629082 1.91015244 4.26671124 4.26671219 4.26671124 2.35629082 0 4.26671123-1.91042042 4.26671123-4.26671124z"/>
      </g>
    </g>
  </g>
</svg>
